<svg width="24" height="25" viewBox="0 0 24 25" fill="none" xmlns="http://www.w3.org/2000/svg">
<g id="Icon">
<path id="Vector (Stroke)" fill-rule="evenodd" clip-rule="evenodd" d="M3.6001 12.5002C3.6001 12.0031 4.00304 11.6002 4.5001 11.6002L17.2656 11.6002L12.2763 6.84894C11.918 6.50443 11.9068 5.93469 12.2513 5.5764C12.5959 5.2181 13.1656 5.20693 13.5239 5.55144L20.1239 11.8514C20.3004 12.0211 20.4001 12.2554 20.4001 12.5002C20.4001 12.745 20.3004 12.9793 20.1239 13.1489L13.5239 19.4489C13.1656 19.7935 12.5959 19.7823 12.2513 19.424C11.9068 19.0657 11.918 18.496 12.2763 18.1514L17.2656 13.4002L4.5001 13.4002C4.00304 13.4002 3.6001 12.9973 3.6001 12.5002Z" fill="white"/>
</g>
</svg>
